# File created by Blade
# Date/Time:  Wed Jan 28 16:58:26 2015
#---------------------------------------------------------
:version 1.10
:name HOM
:units
  mass 1.0
  length 1.000000
  angle deg
:documentation
     Acclaim Skeleton File
:root
   axis xyz
   order TX TY TZ RX RY RZ
   position 0.000000 0.000000 0.000000
   orientation 0 0 0
:bonedata
   begin
      id 1
      name Spine_dum
      direction 0.000000 1.000000 0.000000
      length 9.621153
      axis 0.0 0.0 0.0 xyz
   end
   begin
      id 2
      name LeftUpLeg_dum
      direction 1.000000 0.000000 0.000000
      length 2.700595
      axis 0.0 0.0 0.0 xyz
   end
   begin
      id 3
      name RightUpLeg_dum
      direction -1.000000 0.000000 0.000000
      length 2.700595
      axis 0.0 0.0 0.0 xyz
   end
   begin
      id 4
      name Spine
      direction 0.000000 1.000000 0.000000
      length 0.000000
      axis 0.0 0.0 0.0 xyz
      dof rx ry rz
   end
   begin
      id 5
      name Spine_dum1
      direction 0.000000 1.000000 0.000000
      length 12.771951
      axis 0.0 0.0 0.0 xyz
   end
   begin
      id 6
      name Spine_dum2
      direction 0.000000 1.000000 0.000000
      length 7.400569
      axis 0.0 0.0 0.0 xyz
   end
   begin
      id 7
      name Spine_dum3
      direction 0.000000 1.000000 0.000000
      length 7.400569
      axis 0.0 0.0 0.0 xyz
   end
   begin
      id 8
      name Head
      direction 0.000000 1.000000 0.000000
      length 4.527550
      axis 0.0 0.0 0.0 xyz
      dof rx ry rz
   end
   begin
      id 9
      name LeftShoulder
      direction 1.000000 0.000000 0.000000
      length 8.349299
      axis 0.0 0.0 -90.0 xyz
      dof rx ry rz
   end
   begin
      id 10
      name LeftArm
      direction 1.000000 0.000000 0.000000
      length 11.334839
      axis 0.0 0.0 -90.0 xyz
      dof rx ry rz
   end
   begin
      id 11
      name LeftForeArm
      direction 1.000000 0.000000 0.000000
      length 9.694182
      axis 0.0 0.0 -90.0 xyz
      dof ry rz rx
   end
   begin
      id 12
      name LeftHand
      direction 0.000000 0.000000 0.000000
      length 0.000000
      axis 0.0 0.0 -90.0 xyz
      dof rx ry rz
   end
   begin
      id 13
      name LeftHand_dum1
      direction 0.000000 0.000000 0.000000
      length 0.000000
      axis 0.0 0.0 -90.0 xyz
   end
   begin
      id 14
      name LeftHand_dum2
      direction 1.000000 0.000000 0.000000
      length 3.937000
      axis 0.0 0.0 -90.0 xyz
   end
   begin
      id 15
      name LeftHandThumb1
      direction 0.000000 0.000000 1.000000
      length 3.937000
      axis 0.0 0.0 -90.0 xyz
      dof rx rz ry
   end
   begin
      id 16
      name RightShoulder
      direction -1.000000 0.000000 0.000000
      length 8.349299
      axis 0.0 0.0 90.0 xyz
      dof rx ry rz
   end
   begin
      id 17
      name RightArm
      direction -1.000000 0.000000 0.000000
      length 11.334839
      axis 0.0 0.0 90.0 xyz
      dof rx ry rz
   end
   begin
      id 18
      name RightForeArm
      direction -1.000000 0.000000 0.000000
      length 9.694182
      axis 0.0 0.0 90.0 xyz
      dof ry rz rx
   end
   begin
      id 19
      name RightHand
      direction 0.000000 0.000000 0.000000
      length 0.000000
      axis 0.0 0.0 90.0 xyz
      dof rx ry rz
   end
   begin
      id 20
      name RightHand_dum1
      direction 0.000000 0.000000 0.000000
      length 0.000000
      axis 0.0 0.0 90.0 xyz
   end
   begin
      id 21
      name RightHand_dum2
      direction -1.000000 0.000000 0.000000
      length 3.937000
      axis 0.0 0.0 90.0 xyz
   end
   begin
      id 22
      name RightHandThumb1
      direction 0.000000 0.000000 1.000000
      length 3.937000
      axis 0.0 0.0 90.0 xyz
      dof rx rz ry
   end
   begin
      id 23
      name LeftUpLeg
      direction 0.000000 -1.000000 0.000000
      length 16.757176
      axis 0.0 0.0 0.0 xyz
      dof rx ry rz
   end
   begin
      id 24
      name LeftLeg
      direction 0.000000 -1.000000 0.000000
      length 16.759153
      axis 0.0 0.0 0.0 xyz
      dof rx ry rz
   end
   begin
      id 25
      name LeftFoot
      direction 0.000000 -0.258819 0.965926
      length 5.841289
      axis 15.0 0.0 0.0 xyz
      dof rx ry rz
   end
   begin
      id 26
      name LeftToeBase
      direction 0.000000 0.000000 1.000000
      length 2.952750
      axis 0.0 0.0 0.0 xyz
      dof rx ry rz
   end
   begin
      id 27
      name RightUpLeg
      direction 0.000000 -1.000000 0.000000
      length 16.757176
      axis 0.0 0.0 0.0 xyz
      dof rx ry rz
   end
   begin
      id 28
      name RightLeg
      direction 0.000000 -1.000000 0.000000
      length 16.759153
      axis 0.0 0.0 0.0 xyz
      dof rx ry rz
   end
   begin
      id 29
      name RightFoot
      direction 0.000000 -0.258819 0.965926
      length 5.841289
      axis 15.0 0.0 0.0 xyz
      dof rx ry rz
   end
   begin
      id 30
      name RightToeBase
      direction 0.000000 0.000000 1.000000
      length 2.952750
      axis 0.0 0.0 0.0 xyz
      dof rx ry rz
   end
:hierarchy
   begin
      root Spine_dum LeftUpLeg_dum RightUpLeg_dum
      Spine_dum Spine
      LeftUpLeg_dum LeftUpLeg
      RightUpLeg_dum RightUpLeg
      Spine Spine_dum1 Spine_dum2 Spine_dum3
      Spine_dum1 Head
      Spine_dum2 LeftShoulder
      Spine_dum3 RightShoulder
      LeftShoulder LeftArm
      LeftArm LeftForeArm
      LeftForeArm LeftHand
      LeftHand LeftHand_dum1 LeftHand_dum2
      LeftHand_dum1 LeftHandThumb1
      RightShoulder RightArm
      RightArm RightForeArm
      RightForeArm RightHand
      RightHand RightHand_dum1 RightHand_dum2
      RightHand_dum1 RightHandThumb1
      LeftUpLeg LeftLeg
      LeftLeg LeftFoot
      LeftFoot LeftToeBase
      RightUpLeg RightLeg
      RightLeg RightFoot
      RightFoot RightToeBase
   end

# File created by Blade
# Date/Time:  Wed Jan 28 16:58:32 2015
# Frame Rate: 120.000 fps
#------------------------------------------------------
:FULLY-SPECIFIED
:DEGREES
2549
root 11.455588 38.222840 -18.620006 209.179763 15.098039 -132.270101
Spine 27.759377 -5.814498 21.241548
Head 20.553646 0.563271 50.875020
LeftShoulder -7.979806 -3.649922 31.869957
LeftArm 50.153162 -34.697934 -73.149826
LeftForeArm -11.311304 0.000000 114.391070
LeftHand -19.785589 -0.000000 19.952610
LeftHandThumb1 -26.253704 0.000000 33.147579
RightShoulder -19.979920 -6.887133 -2.147631
RightArm 11.846139 -21.263448 68.434486
RightForeArm -8.681044 -0.000000 25.066775
RightHand -16.377232 -0.000000 3.130902
RightHandThumb1 -24.326973 -0.000000 -32.862282
LeftUpLeg -15.310854 37.040880 30.658803
LeftLeg 5.358380 -0.000000 -0.000000
LeftFoot -9.365413 22.921296 -10.217599
LeftToeBase 7.852823 -0.000000 -0.000000
RightUpLeg -64.290823 -28.761994 -22.818467
RightLeg 111.026834 -0.000000 -0.000000
RightFoot 2.623794 -13.544602 6.500247
RightToeBase 2.948220 -0.000000 -0.000000
2550
root 11.452617 38.201887 -18.635066 209.010884 15.141458 -132.447288
Spine 27.748050 -5.902038 21.118368
Head 20.609111 0.661482 50.660875
LeftShoulder -7.927899 -3.684576 31.860908
LeftArm 50.149513 -34.606091 -73.323861
LeftForeArm -11.122875 -0.000000 114.268217
LeftHand -19.915852 -0.000000 19.815580
LeftHandThumb1 -26.253704 0.000000 33.147579
RightShoulder -19.993889 -6.933182 -2.254806
RightArm 11.849152 -21.439342 68.460470
RightForeArm -8.646841 -0.000000 25.239231
RightHand -16.247735 -0.000000 3.477171
RightHandThumb1 -24.326973 -0.000000 -32.862282
LeftUpLeg -15.140356 37.209718 30.307137
LeftLeg 4.967314 -0.000000 -0.000000
LeftFoot -9.499107 23.085187 -10.310646
LeftToeBase 8.116966 -0.000000 -0.000000
RightUpLeg -64.003552 -28.305062 -23.062208
RightLeg 111.554397 -0.000000 -0.000000
RightFoot 3.009072 -13.417846 5.856514
RightToeBase 2.946768 -0.000000 -0.000000
2551
root 11.450962 38.172712 -18.651317 208.840972 15.187141 -132.631041
Spine 27.699736 -6.015070 20.998150
Head 20.633166 0.792638 50.386873
LeftShoulder -7.905254 -3.630131 31.846108
LeftArm 50.180323 -34.510071 -73.526527
LeftForeArm -10.933295 -0.000000 114.129631
LeftHand -19.971444 0.000000 19.711379
LeftHandThumb1 -26.253704 0.000000 33.147579
RightShoulder -19.953385 -6.924632 -2.392183
RightArm 11.679518 -21.558880 68.542340
RightForeArm -8.860176 -0.000000 25.595690
RightHand -16.406223 -0.000000 3.884805
RightHandThumb1 -24.326973 -0.000000 -32.862282
LeftUpLeg -14.871203 37.178848 30.061046
LeftLeg 4.557418 -0.000000 -0.000000
LeftFoot -9.763678 23.239290 -10.515476
LeftToeBase 8.518962 -0.000000 -0.000000
RightUpLeg -63.733246 -27.854445 -23.183299
RightLeg 112.084849 -0.000000 -0.000000
RightFoot 3.306424 -13.192116 5.347579
RightToeBase 3.069627 -0.000000 -0.000000
2552
root 11.447550 38.137948 -18.671253 208.681359 15.230689 -132.820697
Spine 27.600299 -6.132975 20.933593
Head 20.688882 0.851741 50.033242
LeftShoulder -7.863822 -3.581899 31.761657
LeftArm 50.130660 -34.409665 -73.632910
LeftForeArm -10.788401 -0.000000 113.982536
LeftHand -19.959640 0.000000 19.569765
LeftHandThumb1 -26.253704 0.000000 33.147579
RightShoulder -19.930882 -6.884966 -2.566000
RightArm 11.528671 -21.853978 68.587182
RightForeArm -8.467258 0.000000 25.740621
RightHand -16.203889 -0.000000 3.780390
RightHandThumb1 -24.326973 -0.000000 -32.862282
LeftUpLeg -14.559956 37.030129 29.915745
LeftLeg 4.220614 -0.000000 -0.000000
LeftFoot -10.148728 23.198805 -10.817524
LeftToeBase 9.033280 -0.000000 -0.000000
RightUpLeg -63.469802 -27.395249 -23.206444
RightLeg 112.617663 -0.000000 -0.000000
RightFoot 3.463653 -12.750200 5.159408
RightToeBase 3.242493 -0.000000 -0.000000
2553
root 11.436702 38.092607 -18.694193 208.521597 15.327434 -133.049028
Spine 27.481041 -6.214482 20.839645
Head 20.757659 0.961018 49.656454
LeftShoulder -7.807385 -3.484187 31.653843
LeftArm 50.110095 -34.306821 -73.716988
LeftForeArm -10.729973 0.000000 113.837412
LeftHand -19.817807 -0.000000 19.607210
LeftHandThumb1 -26.253704 0.000000 33.147579
RightShoulder -19.968364 -6.976917 -2.621117
RightArm 11.579165 -22.010388 68.461597
RightForeArm -8.397417 -0.000000 25.876016
RightHand -15.995193 -0.000000 4.197142
RightHandThumb1 -24.326973 -0.000000 -32.862282
LeftUpLeg -14.174287 36.759561 29.804479
LeftLeg 3.912913 -0.000000 -0.000000
LeftFoot -10.610819 23.120125 -11.123729
LeftToeBase 9.542089 -0.000000 -0.000000
RightUpLeg -63.256942 -26.919519 -23.180947
RightLeg 113.129674 -0.000000 -0.000000
RightFoot 3.712561 -12.200139 4.928468
RightToeBase 3.052915 -0.000000 -0.000000
